# xmcd
# 
# Track frame offsets:
#     150
#     13400
#     27750
#     41687
#     57512
#     72387
#     88250
#     103937
#     115412
#     132637
#     154812
#     168575
#     181737
#     199125
#     214600
#     227250
#     243350
#     258212
#     270087
#     284612
# 
# Disc length: 4003
# 
# Revision: 4
# Processed by: cddbd v1.5.2PL0 Copyright (c) Steve Scherf et al.
# Submitted via: fre:ac v1.0.31
# 
DISCID=240fa114
DTITLE=Various Artist - Feten Classics [CD3)
DYEAR=2000
DGENRE=Pop
TTITLE0=Benny - Amigo Charlie Brown 1975
TTITLE1=Roland Kaiser - Sieben Fässer Wein 1977
TTITLE2=Rex Gildo - Fiesta Mexicana 1972
TTITLE3=Roland Kaiser - Ich glaub' es geht schon wieder los 1988
TTITLE4=Die Partygeier - Die Hände zum Himmel 1999
TTITLE5=Geier Sturzflug - Die Lust am Leben (2000)
TTITLE6=Olivados - Anton aus Tirol (Tirol-Ton-Mix) 2000
TTITLE7=Peter Kraus - Rote Lippen soll man küssen (Lucky Lips) 1991
TTITLE8=Rivera - Ich will keine Schokolade (Radio Edit) 1996
TTITLE9=Nina Hagen - Zarah 1983
TTITLE10=Costa Cordalis - Anita 1976
TTITLE11=Markus - Ich will Spaß 1982
TTITLE12=Nena - 99 Luftballons 1983
TTITLE13=Rio Reiser - König von Deutschland 1986
TTITLE14=Roberto Blanco - Ein bißchen Spaß muß sein 1973
TTITLE15=Tina York - Wir lassen uns das Singen nicht verbieten 1974
TTITLE16=Frank Zander - Axel macht Musik 1995
TTITLE17=Bernd Spier - Pretty Belinda 1969
TTITLE18=Costa Cordalis - Nimm das nächste Schiff nach Rhodos (I Love, I Love, I Love You) 1978
TTITLE19=Markus - Kleine Taschenlampe brenn 1982
EXTD=
EXTT0=
EXTT1=
EXTT2=
EXTT3=
EXTT4=
EXTT5=
EXTT6=
EXTT7=
EXTT8=
EXTT9=
EXTT10=
EXTT11=
EXTT12=
EXTT13=
EXTT14=
EXTT15=
EXTT16=
EXTT17=
EXTT18=
EXTT19=
PLAYORDER=
